<?xml version="1.0" encoding="UTF-8" standalone="no"?>
<!-- Created with Inkscape (http://www.inkscape.org/) -->

<svg
   version="1.1"
   id="svg1"
   width="2470.9517"
   height="2135.4839"
   viewBox="0 0 2470.9517 2135.4839"
   sodipodi:docname="IMG_7634.svg"
   inkscape:version="1.3.2 (091e20e, 2023-11-25)"
   xmlns:inkscape="http://www.inkscape.org/namespaces/inkscape"
   xmlns:sodipodi="http://sodipodi.sourceforge.net/DTD/sodipodi-0.dtd"
   xmlns="http://www.w3.org/2000/svg"
   xmlns:svg="http://www.w3.org/2000/svg">
  <defs
     id="defs1" />
  <sodipodi:namedview
     id="namedview1"
     pagecolor="#ffffff"
     bordercolor="#000000"
     borderopacity="0.25"
     inkscape:showpageshadow="2"
     inkscape:pageopacity="0.0"
     inkscape:pagecheckerboard="0"
     inkscape:deskcolor="#d1d1d1"
     showgrid="false"
     inkscape:zoom="0.51190476"
     inkscape:cx="1149.6279"
     inkscape:cy="857.5814"
     inkscape:window-width="3840"
     inkscape:window-height="1547"
     inkscape:window-x="1728"
     inkscape:window-y="25"
     inkscape:window-maximized="1"
     inkscape:current-layer="g1" />
  <g
     inkscape:groupmode="layer"
     inkscape:label="Image"
     id="g1"
     transform="translate(-406.33476,-1021.3532)">
    <path
       id="path60"
       style="fill:#000000"
       d="m 1402.9883,2984.5664 c -0.3491,0.3491 0.4162,5.9144 1.7012,12.3672 1.285,6.4528 2.4147,14.7747 2.5117,18.4922 0.2032,7.8219 3.2929,13.4015 8.5195,15.3887 3.045,1.1577 3.9456,0.9086 6.0273,-1.6622 1.8747,-2.3151 2.2225,-4.1304 1.4883,-7.7539 -0.5273,-2.6023 -1.0989,-11.2513 -1.2715,-19.2207 -0.2102,-9.7001 -0.8533,-14.8239 -1.9472,-15.5 -2.0026,-1.2376 -16.1488,-2.9918 -17.0293,-2.1113 z" />
    <path
       id="path55"
       style="fill:#000000"
       d="m 1426.4629,2809.334 c -3.5963,0 -4.3416,3.0767 -1.8926,7.8125 1.1531,2.2297 2.0957,4.2955 2.0957,4.5898 0,1.4142 -8.3781,9.0575 -11.957,10.9082 -4.6121,2.385 -5.0589,5.365 -1.4512,9.6895 3.7522,4.4978 11.5255,4.0736 18.543,-1.0098 4.8458,-3.5103 5.5332,-4.6496 5.5332,-9.1699 0,-2.8389 -0.8412,-5.8597 -1.8692,-6.7129 -1.0281,-0.8532 -2.249,-3.1755 -2.7128,-5.1621 -1.7358,-7.4335 -3.754,-10.9453 -6.2891,-10.9453 z" />
    <path
       id="path54"
       style="fill:#007395;fill-opacity:1"
       d="m 2001.4531,2785.1113 c -1.105,1.2264 -1.2489,4.0492 -0.6738,8.7403 0.5495,4.4818 0.8954,11.0961 0.7676,14.6992 -0.1595,4.4956 0.4636,7.3195 1.9843,9 2.557,2.8254 7.1708,3.2013 9.629,0.7832 1.0889,-1.0711 1.4354,-3.5722 0.9668,-7 -0.4011,-2.9333 -1.1263,-9.4114 -1.6114,-14.3945 -0.7949,-8.1673 -1.2512,-9.2507 -4.6152,-10.9903 -3.2758,-1.694 -5.3422,-2.0642 -6.4473,-0.8379 z m 44.041,2.4551 -6.1601,1.125 v 5.7383 c 0,4.8038 0.5853,6.0932 3.5957,7.9199 3.3415,2.0274 4.1161,2.0182 10.9648,-0.1406 4.0535,-1.2778 7.9813,-3.3478 8.7285,-4.5996 0.7473,-1.2518 1.2137,-3.7602 1.0352,-5.5742 -0.2706,-2.7508 -1.2938,-3.4901 -6.1641,-4.4473 -3.212,-0.631 -8.6116,-0.6405 -12,-0.021 z" />
    <path
       id="path51"
       style="fill:#000000"
       d="m 491.45703,2734.7539 c -0.34289,-0.1478 -0.82889,0.2296 -1.40039,1.1543 -0.42191,0.6826 -0.15741,1.6174 0.58789,2.0781 0.74529,0.4606 1.35547,-0.097 1.35547,-1.2402 0,-1.1711 -0.20008,-1.8444 -0.54297,-1.9922 z" />
    <path
       id="path50"
       style="fill:#000000"
       d="m 1313.2754,2654.7266 c -2.3038,-0.1652 -3.6777,0.4087 -3.1465,1.7929 0.3912,1.0195 2.0226,1.8175 3.625,1.7735 1.6025,-0.044 5.3128,0.3232 8.2461,0.8164 l 5.334,0.8965 -5.334,-2.6348 c -3.1876,-1.5747 -6.4208,-2.4794 -8.7246,-2.6445 z" />
    <path
       id="path49"
       style="fill:#000000"
       d="m 1286.666,2646.666 c 0.7333,0 1.334,0.6007 1.334,1.334 0,0.7333 -0.6007,1.334 -1.334,1.334 -0.7334,0 -1.332,-0.6007 -1.332,-1.334 0,-0.7333 0.5986,-1.334 1.332,-1.334 z" />
    <path
       id="path48"
       style="fill:#000000"
       d="m 1239.1465,2634.2559 c 1.0604,-0.4069 3.036,0.1285 4.3906,1.1894 2.2638,1.7729 2.1395,1.8587 -1.5371,1.0547 -4.9658,-1.0858 -5.2621,-1.3198 -2.8535,-2.2441 z" />
    <path
       id="path47"
       style="fill:#000000"
       d="m 1423.918,2603.3047 c -2.5931,0.3227 -5.4199,1.218 -6.9903,2.498 -3.0539,2.4892 -6.2617,12.4312 -6.2617,19.4102 0,7.6365 2.6956,11.4762 8.8223,12.5723 4.1472,0.7419 4.1565,0.7282 6.4316,-8.1875 1.2534,-4.912 2.795,-10.131 3.4239,-11.5977 1.4916,-3.4794 1.5873,-11.5189 0.164,-13.7637 -0.6373,-1.0053 -2.9967,-1.2543 -5.5898,-0.9316 z" />
    <path
       id="path45"
       style="fill:#000000"
       d="m 1422.4141,2423.5859 c -5.6116,1.0876 -7.9762,4.6274 -7.4981,11.2305 0.3846,5.3124 0.7534,5.8231 4.7813,6.6406 3.8088,0.773 4.7821,0.3557 7.6523,-3.2851 5.8874,-7.4681 2.9612,-16.1165 -4.9355,-14.586 z" />
    <path
       id="path43"
       style="fill:#000000"
       d="m 1411.7344,2233.0684 c -1.9651,0.3841 -4.0363,1.5085 -6.0684,3.3476 -3.8321,3.468 -3.7827,6.0046 0.2227,11.4336 1.7725,2.4025 4.5436,7.6205 6.1562,11.5938 3.0484,7.5107 6.1187,9.3958 6.875,4.2226 0.2413,-1.65 0.5466,-8.5404 0.6797,-15.3125 0.2157,-10.9685 -0.049,-12.5169 -2.4316,-14.1855 -1.6093,-1.1272 -3.4685,-1.4838 -5.4336,-1.0996 z" />
    <path
       id="path39"
       style="fill:#000000"
       d="m 1415.3516,2045.6582 c -2.0683,-1.3575 -4.4249,-1.1711 -7.377,0.3555 -5.0039,2.5876 -6.8236,6.0769 -5.8105,11.1425 1.276,6.3797 4.8035,8.628 13.8711,8.8438 9.2945,0.2211 9.3944,-0.01 4.9648,-11.4375 -1.8001,-4.6456 -3.5802,-7.5468 -5.6484,-8.9043 z" />
    <g
       id="g60"
       style="stroke-width:25.5685;stroke-dasharray:none">
      <path
         id="path59"
         style="fill:#007395;fill-opacity:1;stroke-width:25.5685;stroke-dasharray:none"
         d="m 2058.0781,2978.9238 c -0.7591,-0.2956 -1.7075,0.1638 -3.5,1.1231 -2.0863,1.1166 -2.5759,2.8358 -2.5859,9 0,4.1909 -0.6573,9.9588 -1.4512,12.8183 -1.2029,4.3324 -1.0346,6.0529 1.0078,10.3184 2.7592,5.7625 5.9578,6.589 8.9532,2.3125 2.6437,-3.774 2.6056,-26.8972 -0.053,-32.1621 -1.0417,-2.0631 -1.612,-3.1145 -2.3711,-3.4102 z m 24.5781,19.0782 c -4.5333,0.9957 -4.6915,1.1787 -5.9218,6.9179 -0.8233,3.8403 -0.4898,4.4704 3.4238,6.4942 5.2767,2.7287 22.0708,2.0884 23.9727,-0.9141 1.6973,-2.6796 1.4544,-7.3023 -0.4649,-8.8594 -2.6639,-2.1611 -16.6826,-4.589 -21.0098,-3.6386 z" />
      <path
         id="path58"
         style="fill:#007395;fill-opacity:1;stroke-width:25.5685;stroke-dasharray:none"
         d="m 1910.9668,2973.9043 c -4.0682,1.2912 -4.7256,4.9605 -2.2461,12.541 1.6398,5.0134 1.8186,7.3034 0.7266,9.3438 -1.9177,3.5831 -1.7889,13.1175 0.3574,26.3125 2.4229,14.8955 3.2508,15.889 9.7109,11.6562 2.9681,-1.9448 3.3061,-2.8727 2.5528,-7 -0.4776,-2.617 -1.1741,-11.3571 -1.5489,-19.4238 -0.3748,-8.0666 -1.2449,-16.4071 -1.9336,-18.5332 -0.6886,-2.1261 -1.2519,-5.4617 -1.2519,-7.4121 0,-5.1606 -2.9105,-8.5815 -6.3672,-7.4844 z" />
      <path
         id="path57"
         style="fill:#007395;fill-opacity:1;stroke-width:25.5685;stroke-dasharray:none"
         d="m 2145.1211,2973.459 c -1.7692,0.01 -3.6043,0.9655 -5.1973,2.875 -2.8384,3.4024 -3.2567,8.4109 -1.1621,13.9121 3.0109,7.9077 3.9437,16.6521 2.3438,21.9922 -1.3399,4.472 -1.2424,5.5291 0.6914,7.4629 3.7495,3.7496 6.6545,0.5659 8.373,-9.1758 2.3532,-13.3402 2.2285,-30.6955 -0.2461,-34.2285 -1.33,-1.8986 -3.0335,-2.8444 -4.8027,-2.8379 z" />
      <path
         id="path56"
         style="fill:#007395;fill-opacity:1;stroke-width:25.5685;stroke-dasharray:none"
         d="m 1871.8672,2915.084 c -3.195,0.819 -2.6364,5.1213 0.5371,18.0703 4.2902,17.5054 5.5319,29.3979 3.5293,33.793 -2.1787,4.7818 -8.6174,8.1827 -13.6035,7.1855 -5.7713,-1.1543 -12.5525,-6.7019 -15.6758,-12.8242 -3.2028,-6.2779 -3.3304,-10.2309 -0.5547,-17.168 1.1547,-2.886 1.904,-6.943 1.666,-9.0156 -0.5991,-5.2159 -4.3012,-5.6024 -6.3476,-0.6621 -1.1553,2.7892 -3.351,4.5788 -7.6094,6.2051 -6.8684,2.6231 -8.8921,6.2593 -7.6856,13.8047 0.6574,4.1109 -0.2538,7.1121 -5.332,17.5625 -3.3687,6.9321 -6.125,13.2866 -6.125,14.121 0,2.8088 -3.4885,4.7334 -5.0859,2.8086 -1.2942,-1.5593 -9.5801,-29.9766 -9.5801,-32.8554 0,-0.6492 2.25,-2.3456 5,-3.7676 4.164,-2.1532 5.0673,-3.3751 5.4043,-7.3106 0.3262,-3.8089 -0.2904,-5.2721 -3.1797,-7.5449 -3.9725,-3.1247 -7.2572,-3.5865 -9.5078,-1.3359 -2.1719,2.1719 -3.9675,0.489 -4.9258,-4.6192 -1.0395,-5.5411 -4.881,-9.224 -9.0137,-8.6386 -4.5906,0.6502 -4.8158,7.2766 -0.5214,15.3437 1.8763,3.5246 3.4101,7.6856 3.4101,9.2461 0,2.5038 3.2896,14.7679 10.0879,37.6172 2.9302,9.8487 10.6713,17.5749 17.5801,17.5469 2.75,-0.011 5.6383,-0.4612 6.4199,-1 3.5787,-2.4667 11.134,-16.3849 12.6543,-23.3125 0.9255,-4.2166 2.3367,-7.668 3.1367,-7.668 0.8,0 3.0781,2.0329 5.0606,4.5176 4.3837,5.494 14.5115,10.6283 20.5234,10.4023 4.9761,-0.187 16.3451,-5.6902 19.9219,-9.6425 1.2958,-1.4319 3.4283,-5.7557 4.7383,-9.6075 1.5223,-4.4763 2.146,-9.1667 1.7285,-13.0019 -1.4015,-12.8733 -4.9457,-35.381 -5.711,-36.2656 -0.4434,-0.5124 -3.3466,-1.338 -6.4511,-1.834 -1.9413,-0.3101 -3.4233,-0.4234 -4.4883,-0.1504 z m 166.8926,30.2715 c -1.003,0.8325 -1.4258,2.5774 -1.4258,5.3672 0,11.082 6.3258,18.9863 9.293,11.6113 0.6637,-1.65 0.9438,-3.8007 0.623,-4.7774 -0.3209,-0.9766 -0.584,-3.8447 -0.584,-6.375 0,-3.5516 -0.684,-4.8559 -3,-5.7168 -2.3214,-0.8629 -3.9032,-0.9418 -4.9062,-0.1093 z m -65.6036,17.3105 c -1.8168,0 -10.4902,5.2306 -10.4902,6.3262 0,2.8249 7.8526,13.1603 14.2852,18.8027 4.2091,3.692 7.1957,7.1695 6.6367,7.7285 -0.559,0.559 -3.7602,6e-4 -7.1133,-1.2422 -3.3531,-1.2425 -6.5622,-1.9726 -7.1308,-1.621 -0.5688,0.3515 -5.4222,0.087 -10.7852,-0.586 -13.5999,-1.7077 -18.5586,0.3248 -18.5586,7.6074 0,3.9227 0.9057,6.0211 3.7969,8.7911 3.7848,3.6261 3.8438,3.6353 17.6894,2.7402 l 13.8907,-0.8984 4.5332,3.8144 c 8.4018,7.0698 18.9389,3.7308 24.5058,-7.7637 1.6885,-3.4862 1.6659,-4.7638 -0.1953,-10.584 -1.7521,-5.4788 -4.4807,-8.9016 -15.8359,-19.8671 -7.5453,-7.2863 -14.3988,-13.2481 -15.2286,-13.2481 z" />
      <path
         id="path53"
         style="fill:#007395;fill-opacity:1;stroke-width:25.5685;stroke-dasharray:none"
         d="m 1888.6621,2755.1387 c -0.7907,-0.3127 -1.8124,0.049 -3.1289,0.7539 -1.7194,0.9202 -3.0508,3.3438 -3.5469,6.457 -0.4369,2.7411 -1.3619,7.4994 -2.0566,10.5742 -2.2489,9.9533 -1.4388,37.6016 1.3008,44.4102 2.9219,7.2617 7.8325,10.515 10.5312,6.9765 1.2307,-1.6136 1.4357,-3.7164 0.6797,-6.9765 -0.5952,-2.5666 -1.0857,-17.0837 -1.0957,-32.2598 -0.01,-21.9931 -0.3116,-28.9975 -2.6836,-29.9355 z m 54.9492,2.8125 c -8.7312,-2.1913 -12.0698,6.554 -5.0644,13.2656 2.1338,2.0443 4.1767,4.8571 4.541,6.25 0.7087,2.7104 -0.3161,2.9202 -15.7539,3.2227 -17.0005,0.3332 -19.0424,0.6295 -19.9063,2.8808 -1.7451,4.5476 2.601,6.4267 14.9688,6.4727 29.5124,0.109 34.9872,0.5369 35.8574,2.8047 1.1987,3.1237 -1.0513,6.0774 -7.0371,9.2402 -5.6573,2.9892 -9.114,9.2477 -6.127,11.0937 0.913,0.5647 4.9076,0.5876 8.877,0.049 5.9755,-0.8109 8.1477,-1.9013 12.625,-6.334 4.8383,-4.7902 5.4123,-6.0329 5.4023,-11.793 0,-4.7874 -0.9436,-7.8493 -3.666,-11.9473 -5.8251,-8.7683 -21.0381,-24.2817 -24.7168,-25.205 z m 143.4121,6.9961 c -6.3917,-1.2218 -7.4293,0.034 -6.2695,7.5839 0.5747,3.7408 0.8915,12.299 0.7031,19.0176 -0.4015,14.3118 0.9753,18.1463 6.2989,17.5313 3.4765,-0.4016 3.5973,-0.7132 4.3105,-11.0801 0.7457,-10.8389 0.6241,-15.132 -0.75,-26.1895 -0.6672,-5.3688 -1.2378,-6.2791 -4.293,-6.8632 z" />
      <path
         id="path52"
         style="fill:#007395;fill-opacity:1;stroke-width:25.5685;stroke-dasharray:none"
         d="m 2000.2793,2743.8906 c -3.0766,-0.2386 -5.8303,0.457 -6.5078,2.2227 -1.1586,3.0195 2.3384,16.5527 4.2773,16.5527 0.8931,0 2.3723,0.9 3.2852,2 0.913,1.1 3.6852,2 6.1621,2 H 2012 v -8.0605 c 0,-6.7804 -0.5205,-8.5791 -3.2734,-11.3321 -1.9711,-1.9711 -5.3707,-3.1441 -8.4473,-3.3828 z" />
      <path
         id="path46"
         style="fill:#007395;fill-opacity:1;stroke-width:25.5685;stroke-dasharray:none"
         d="m 922.08789,2456.0039 c -2.77148,0 -3.42187,0.6406 -3.42187,3.375 0,2.0178 0.93899,3.7007 2.33398,4.1836 1.28333,0.4443 6.53268,4.8865 11.66602,9.8711 5.13331,4.9846 12.12574,11.0509 15.5371,13.4824 3.41137,2.4314 10.61139,7.757 16,11.832 5.38862,4.0753 13.45794,9.8871 17.9336,12.9161 4.47564,3.0289 12.29527,9.3229 17.37695,13.9863 6.79013,6.2313 11.52623,9.3194 17.86333,11.6484 4.7425,1.7429 10.782,4.8412 13.4199,6.8867 2.6379,2.0456 8.6366,5.7607 13.332,8.2559 4.6955,2.4952 12.7378,7.4241 17.8711,10.9531 17.6739,12.1504 38.5833,23.3046 68.666,36.627 6.9666,3.0852 18.068,8.1727 24.668,11.3047 16.8797,8.0102 20.6056,9.5762 26.666,11.209 2.9333,0.7903 7.1842,2.5742 9.4453,3.9648 2.2611,1.3905 6.1604,2.9697 8.666,3.5098 2.5056,0.5401 6.0827,1.762 7.9492,2.7148 1.8664,0.9528 10.7243,3.2802 19.6836,5.1719 8.9593,1.8916 17.3313,4.0063 18.6055,4.6992 3.499,1.9025 24.7561,8.0762 27.8086,8.0762 1.4714,0 5.7747,1.4949 9.5625,3.3222 3.7877,1.8273 12.7498,5.1592 19.916,7.4063 7.1661,2.2471 16.0307,5.2233 19.6973,6.6133 6.0136,2.2797 14.0763,4.8481 46,14.6504 6.2013,1.9042 14.3039,3.2192 21.332,3.4609 14.7605,0.5078 24.0422,1.6016 25.8672,3.0488 1.5915,1.262 2.1889,1.391 24.6426,5.3301 8.3462,1.4643 17.4402,2.6298 20.209,2.5918 2.7688,-0.038 5.7123,0.3492 6.541,0.8613 0.8287,0.5122 6.6474,1.764 12.9316,2.7813 9.7325,1.5711 12.0801,1.5718 15.8418,0 2.4289,-1.0148 4.6302,-1.6315 4.8906,-1.3711 0.9974,0.9974 13.871,0.8991 16.4102,-0.125 2.4183,-0.9753 2.4866,-0.8554 0.7422,1.2871 -1.4883,1.8278 -3.1465,2.1943 -7.332,1.6172 -2.9753,-0.4102 -7.5095,-0.251 -10.0762,0.3535 l -4.668,1.0996 4.668,0.8672 c 12.8928,2.399 22.9141,3.5134 31.6758,3.5234 5.3215,0.01 15.8202,0.9296 23.332,2.0547 19.0322,2.8505 20.4041,3.1091 31.6582,5.9356 5.5,1.3814 14.6092,3.139 20.2422,3.9062 5.6331,0.7672 13.1324,2.0648 16.666,2.8848 5.0548,1.1729 22.777,2.2688 45.0918,2.789 0.7333,0.017 3.4333,-0.3765 6,-0.875 l 4.666,-0.9062 -3.332,2.748 c -1.8333,1.5108 -3.8394,2.7594 -4.457,2.7754 -0.6177,0.016 -2.6288,1.2147 -4.4688,2.6621 -1.8401,1.4474 -5.4,3.017 -7.9121,3.4883 -2.5122,0.4712 -5.1463,1.9385 -5.8535,3.2598 -1.5844,2.9606 -0.3046,10.0227 2.1933,12.0957 3.3862,2.8103 11.7495,2.0376 17.3028,-1.5977 5.7134,-3.7402 13.3173,-5.9992 24.5273,-7.289 6.3926,-0.7355 8.1472,-1.6345 13.668,-7 v 0 c 6.8541,-6.6613 8.5256,-12.7747 4,-14.6309 -2.5679,-1.0533 -37.7448,-36.9583 -43.1973,-44.0918 -3.0595,-4.0027 -4.1471,-4.4906 -10.4277,-4.6679 -6.1956,-0.1748 -7.3342,0.228 -9.7754,3.4531 l -2.7637,3.6504 3.2481,3.4765 c 1.7864,1.9121 5.048,4.4112 7.248,5.5547 9.8908,5.1408 25.8636,20.9176 28.3399,27.9922 0.9196,2.6272 1.4622,4.985 1.207,5.2402 -0.2552,0.2552 -2.8075,-0.3529 -5.6719,-1.3515 -2.8644,-0.9986 -15.7077,-2.5732 -28.541,-3.4981 -25.0282,-1.8038 -54.0284,-6.1261 -76.873,-11.4589 -8.6036,-2.0084 -27.9727,-4.4005 -43.793,-5.4083 -15.6316,-0.9957 -32.8709,-3.0875 -42,-5.0957 -4.7666,-1.0485 -15.2673,-2.8946 -23.334,-4.1015 -13.8621,-2.0739 -25.9636,-4.1803 -55.334,-9.6328 -6.9667,-1.2933 -18.7377,-2.3516 -26.1582,-2.3516 -9.1044,0 -13.3125,-0.4684 -12.9433,-1.4394 0.5974,-1.5713 -9.983,-5.2534 -11.3028,-3.9336 -0.4466,0.4466 0.6306,1.1897 2.3926,1.6503 2.98,0.7793 3.0215,0.9089 0.6074,1.8536 -4.182,1.6365 -5.9277,1.3511 -5.9277,-0.9707 0,-1.7198 -0.9303,-2.0237 -4.4453,-1.4532 -3.2201,0.5225 -4.4434,0.2182 -4.4434,-1.1015 0,-1.0018 0.4572,-1.5377 1.0176,-1.1914 0.5605,0.3464 1.3168,0.1498 1.6797,-0.4375 0.363,-0.5873 -1.9965,-2.0223 -5.2422,-3.1895 -3.2456,-1.1671 -5.9004,-1.5975 -5.9004,-0.9551 0,2.4225 -5.5967,1.1135 -6.2715,-1.4668 -0.5452,-2.0849 -1.1968,-2.3619 -3.1211,-1.332 -3.1619,1.692 -8.8878,1.6707 -9.9433,-0.037 -0.4548,-0.736 -2.2038,-0.9927 -3.8868,-0.5703 -1.8176,0.4562 -3.846,-0.018 -4.9961,-1.168 -1.0646,-1.0648 -4.4053,-2.3537 -7.4218,-2.8633 -3.0165,-0.5097 -5.8052,-1.7633 -6.1973,-2.7851 -0.9246,-2.4117 0.9473,-3.5178 4.0508,-2.4004 1.3495,0.4861 2.0797,0.4636 1.623,-0.049 -2.2017,-2.4704 -30.5463,-13.1066 -35.8359,-13.4473 -13.082,-0.8424 -12.8999,-0.8079 -10.1523,-1.8867 1.8363,-0.721 -0.3205,-1.7314 -8,-3.7481 -5.7828,-1.5185 -13.8144,-3.773 -17.8477,-5.0097 -4.0333,-1.2367 -9.5767,-2.212 -12.3184,-2.168 -2.7418,0.044 -8.1418,-1.3051 -12,-2.9981 -3.8583,-1.6929 -10.0149,-3.8946 -13.6816,-4.8906 -3.6667,-0.996 -7.9086,-2.6036 -9.4277,-3.5742 -1.5191,-0.9706 -11.1198,-5.0935 -21.334,-9.1602 -10.2142,-4.0664 -20.6716,-8.809 -23.2383,-10.539 -2.5667,-1.73 -9.166,-5.05 -14.666,-7.3789 -10.8214,-4.5822 -23.4648,-10.3206 -26.668,-12.1035 -1.1,-0.6122 -4.9993,-2.7215 -8.666,-4.6875 -3.6667,-1.966 -9.6674,-5.505 -13.334,-7.8653 -3.6667,-2.3603 -9.0667,-5.6926 -12,-7.4043 -2.9334,-1.7117 -7.4334,-4.7105 -10,-6.664 -2.5667,-1.9535 -12.4301,-7.6288 -21.9199,-12.6114 -24.0875,-12.647 -29.6917,-16.0948 -37.34376,-22.9746 -3.67947,-3.3082 -9.40049,-7.8686 -12.71289,-10.1347 -3.31238,-2.2661 -6.84656,-4.9306 -7.85351,-5.92 -1.97705,-1.9427 -18.51538,-14.681 -26.86328,-20.6914 -2.82501,-2.034 -8.73708,-7.2423 -13.13672,-11.5742 -9.05968,-8.9201 -11.88127,-10.7285 -16.74805,-10.7285 z m 395.97071,204.4414 c -1.0678,0 -1.6316,0.4982 -1.2539,1.1094 0.3777,0.6111 1.2513,1.1113 1.9414,1.1113 0.69,0 1.2539,-0.5002 1.2539,-1.1113 0,-0.6112 -0.8737,-1.1094 -1.9414,-1.1094 z m 27.2129,9.5215 c 0.1311,0.2437 -0.2957,0.7645 -1.3594,1.4219 -0.7821,0.4833 -1.7091,0.5917 -2.0586,0.2422 -0.3495,-0.3495 0.2903,-0.9897 1.4219,-1.4239 1.1747,-0.4508 1.865,-0.484 1.9961,-0.2402 z m 47.4277,11.2871 c 3.9215,1.1702 3.9061,1.1855 -1.2988,1.2988 -3.4173,0.074 -4.8115,-0.3428 -3.9688,-1.1855 0.803,-0.803 2.8138,-0.8455 5.2676,-0.1133 z m 458.5508,5.4121 c -2.3532,0 -9.624,9.0244 -11.5488,14.334 -0.864,2.3833 -2.0615,4.334 -2.6621,4.334 -1.5292,0 -11.7914,-6.4682 -15.2344,-9.6016 -3.83,-3.4857 -10.3161,-2.826 -10.877,1.1055 -0.2912,2.0416 2.422,5.6545 9.668,12.8769 5.5393,5.5213 10.0703,10.645 10.0703,11.3868 0,0.7419 -0.8628,3.0469 -1.918,5.123 -3.0935,6.0869 -5.8043,12.8205 -6.8515,17.0195 -0.5364,2.1511 -1.7794,5.4518 -2.7617,7.334 -3.6591,7.0118 -1.9044,13.4219 3.6738,13.4219 5.3174,0 8.6443,-3.8164 10.3789,-11.9043 1.4678,-6.8444 5.7752,-16.6303 7.8965,-17.9414 1.3365,-0.8259 8.4351,7.5218 15.4648,18.1895 6.3172,9.5864 11.0937,13.6136 13.6407,11.5 2.6873,-2.2303 2.2047,-6.1584 -1.3418,-10.9336 -1.7337,-2.3344 -5.3776,-8.1435 -8.0977,-12.9102 -2.7201,-4.7667 -6.7252,-11.4159 -8.9004,-14.7754 -4.5246,-6.9881 -4.1049,-9.8197 2.7422,-18.4648 2.1153,-2.6709 4.2484,-6.9998 4.7402,-9.6211 0.7773,-4.1437 0.4208,-5.1389 -2.7324,-7.6192 -1.9946,-1.569 -4.4019,-2.8535 -5.3496,-2.8535 z m -411.3477,2.2324 c 1.109,-1.109 2.2573,-1.0236 4.4219,0.3282 1.6086,1.0046 4.4444,2.2366 6.3008,2.7382 l 3.375,0.9122 -3.666,0.7109 c -2.0166,0.3904 -3.668,0.2394 -3.668,-0.334 0,-0.5734 -1.8583,-1.4501 -4.1308,-1.9492 -3.058,-0.6717 -3.7419,-1.2973 -2.6329,-2.4063 z m 30.6075,4.4356 c 1.4667,0 3.037,0.5986 3.4902,1.332 0.4532,0.7333 -0.3752,1.334 -1.8418,1.334 -1.4667,0 -3.039,-0.6007 -3.4922,-1.334 -0.4533,-0.7334 0.3771,-1.332 1.8438,-1.332 z m 16.8242,2.666 c 1.1,0 2,0.6007 2,1.334 0,0.7334 -0.9,1.332 -2,1.332 -1.1,0 -2,-0.5986 -2,-1.332 0,-0.7333 0.9,-1.334 2,-1.334 z m 67.082,9.7559 c 0.9625,-0.3851 2.1137,-0.3376 2.5567,0.1054 0.4431,0.4431 -0.3444,0.7572 -1.75,0.6992 -1.5532,-0.064 -1.8704,-0.3789 -0.8067,-0.8046 z m 66.2852,9.1679 c 0.4106,0.4105 -0.3296,1.1556 -1.6446,1.6563 -1.9003,0.7236 -2.0531,0.5708 -0.7461,-0.7461 0.9045,-0.9112 1.9802,-1.3207 2.3907,-0.9102 z m 35.8867,3.7422 c 1.8766,0 3.4121,0.6007 3.4121,1.334 0,0.7333 -1.1645,1.334 -2.5879,1.334 -1.4234,0 -2.9589,-0.6007 -3.4121,-1.334 -0.4674,-0.7562 0.6527,-1.334 2.5879,-1.334 z m -21.7383,0.2832 c 0.9986,0.3329 0.3929,0.9387 -1.4101,1.4102 -2.2178,0.5799 -2.7376,0.4054 -1.7481,-0.584 0.7748,-0.7748 2.1963,-1.1468 3.1582,-0.8262 z" />
      <path
         id="path44"
         style="fill:#000000;stroke-width:25.5685;stroke-dasharray:none"
         d="m 535.01172,2243.1406 c 0.0732,-0.1732 0.55181,-0.046 1.4668,0.3047 1.2037,0.4619 2.1875,1.3764 2.1875,2.0313 0,1.7146 -0.77124,1.4738 -2.69141,-0.8399 -0.70452,-0.8489 -1.03613,-1.3229 -0.96289,-1.4961 z" />
      <path
         id="path42"
         style="fill:#007395;fill-opacity:1;stroke-width:25.5685;stroke-dasharray:none"
         d="m 434.75781,2187.1523 c -3.94702,-0.4826 -8.20459,-0.5103 -11.38281,0.086 -4.31291,0.8091 -4.82421,1.3201 -4.45703,4.4765 0.36393,3.1286 1.39365,3.8298 8.41601,5.7364 9.80426,2.6619 28.14387,10.0583 32.66602,13.1738 1.83333,1.2631 7.25483,4.1286 12.04883,6.3672 14.9288,6.9711 42.61734,24.2811 73.28515,45.8164 6.23334,4.3771 12.72372,8.5354 14.42383,9.2422 7.39874,3.0764 31.68521,23.9971 64.23633,55.332 15.96269,15.3662 29.46363,27.3033 35.49024,31.3789 1.54987,1.0482 8.11738,6.9008 14.59374,13.0059 6.47637,6.1051 13.60725,12.0382 15.84766,13.1855 4.06236,2.0802 6.01599,4.0618 6.05469,6.1465 0.0112,0.6051 -5.22982,0.6987 -11.64649,0.207 -10.11546,-0.7753 -13.5185,-0.423 -25.58398,2.6524 -7.65363,1.9509 -14.93341,4.0919 -16.17773,4.7578 -1.24435,0.666 -2.68222,3.4486 -3.19532,6.1836 -1.44049,7.6782 0.77404,8.5831 18.91407,7.7246 8.30831,-0.3932 16.74109,-1.3433 18.74023,-2.1113 5.6175,-2.1579 24.19343,-5.1778 31.86719,-5.1778 5.47377,0 7.74455,-0.7157 11,-3.455 3.29318,-2.7711 4.10156,-4.4798 4.10156,-8.6661 0,-3.6671 -0.57378,-5.2148 -1.93359,-5.2148 -1.06356,0 -2.41356,-0.7702 -3,-1.7129 -0.58644,-0.9426 -5.15303,-4.6001 -10.14844,-8.1269 -16.10154,-11.3677 -23.42799,-21.6362 -24.5918,-34.4707 -0.61538,-6.7866 -1.03607,-7.6895 -3.58984,-7.6895 -1.59132,0 -3.98547,0.7993 -5.32031,1.7754 -2.45197,1.7929 -2.45582,4.8273 -0.0215,14.5586 1.55686,6.2237 -2.44767,4.437 -13.66406,-6.0977 -5.71818,-5.3707 -13.09649,-12.2325 -16.39649,-15.248 -3.29998,-3.0155 -14.35232,-13.6212 -24.56054,-23.5684 -10.20822,-9.9472 -19.0178,-18.0859 -19.57617,-18.0859 -0.55836,0 -4.64867,-3.6 -9.08985,-8 -8.29604,-8.2191 -10.06819,-9.2201 -11.21484,-6.334 -0.40634,1.0228 -3.41081,-1.2397 -7.77735,-5.8574 -3.91357,-4.1386 -9.01912,-8.481 -11.3457,-9.6485 -2.32659,-1.1675 -6.89688,-4.38 -10.15625,-7.1406 -3.25937,-2.7605 -7.95484,-6.2048 -10.43555,-7.6523 -2.48069,-1.4474 -7.29364,-4.2443 -10.69531,-6.2149 -6.20173,-3.5926 -18.29426,-11.5069 -34.48242,-22.5703 -4.76667,-3.2576 -10.16667,-6.6949 -12,-7.6387 -1.83333,-0.9437 -4.83268,-2.5823 -6.66602,-3.6425 -1.83331,-1.0601 -5.13398,-1.9468 -7.33398,-1.9688 -5.18471,-0.052 -9.58757,-2.5933 -4.66602,-2.6933 l 3.33204,-0.066 -3.33204,-1.9355 c -1.83331,-1.0646 -6.63465,-2.9051 -10.66796,-4.0898 -4.03334,-1.1847 -8.70971,-3.0247 -10.39258,-4.0879 -1.93314,-1.2212 -5.56859,-2.158 -9.51563,-2.6407 z" />
      <path
         id="path41"
         style="fill:#000000;stroke-width:25.5685;stroke-dasharray:none"
         d="m 689.95703,2130.666 c 4.26003,0 4.70899,0.3532 4.70899,3.7031 0,5.1103 -3.16013,9.1481 -8.5586,10.9297 -5.68449,1.8761 -13.25139,0.1607 -13.88867,-3.1484 -0.99136,-5.1477 8.79502,-11.4844 17.73828,-11.4844 z" />
      <path
         id="path40"
         style="fill:#007395;fill-opacity:1;stroke-width:25.5685;stroke-dasharray:none"
         d="m 615.60547,2056.4902 c -1.40736,0 -2.73247,0.5135 -5.03711,1.5528 -5.79896,2.615 -7.38614,5.6162 -9.35352,17.6777 -1.3463,8.2538 -1.19238,9.7376 1.9961,19.1816 1.90053,5.6293 3.4617,12.2288 3.4707,14.6661 0.009,2.4374 0.90178,7.7323 1.98438,11.7656 2.76307,10.2943 2.64457,10.946 -3.41602,18.6133 -6.66863,8.4365 -6.64536,12.2 0.084,13.5703 3.54839,0.7225 4.94509,0.453 5.83008,-1.125 0.90674,-1.6168 1.68252,-0.785 3.51172,3.7656 1.29137,3.2126 3.0867,8.5418 3.99024,11.8418 2.98672,10.9085 4.27608,13.5132 6.30078,12.7363 1.05517,-0.4049 2.46922,-0.7363 3.14258,-0.7363 1.8215,0 1.48104,-9.9094 -0.63477,-18.4746 -3.7557,-15.2038 -3.70829,-17.1773 0.48633,-20.1641 2.08127,-1.482 4.9409,-2.6953 6.35547,-2.6953 1.41455,0 2.97204,-0.3998 3.46093,-0.8887 0.48889,-0.4889 0.88868,-2.2942 0.88868,-4.0117 0,-2.9933 -0.29637,-3.0877 -7.19141,-2.2773 -6.57506,0.7728 -7.36997,0.5747 -9.24023,-2.3203 -1.1612,-1.7974 -2.67981,-9.2226 -3.51172,-17.168 -0.80621,-7.7 -2.11178,-18.5 -2.90235,-24 -1.03008,-7.1637 -1.02965,-11.0393 0.004,-13.666 1.85385,-4.7114 5.82153,-4.7621 9.20508,-0.1172 2.96037,4.0639 6.9707,3.5493 6.9707,-0.8945 0,-5.8772 -5.0038,-12.9013 -10.85938,-15.2442 -2.63808,-1.0556 -4.12779,-1.5832 -5.53515,-1.5879 z m 75.66797,62.6153 c -4.84074,0.1859 -10.63848,1.9962 -17.75586,5.4472 -19.34255,9.3787 -18.85156,9.0212 -18.85156,13.7032 0,3.673 1.05629,5.1064 7,9.4961 15.42192,11.3898 21.96233,12.3932 31.24218,4.789 3.21702,-2.6361 7.62272,-7.8875 9.79102,-11.668 4.89409,-8.5331 5.05536,-13.3243 0.58984,-17.4628 -3.29221,-3.0511 -7.17489,-4.4907 -12.01562,-4.3047 z" />
      <path
         id="path38"
         style="fill:#007395;fill-opacity:1;stroke-width:25.5685;stroke-dasharray:none"
         d="m 710.72461,2036.6309 c -2.30264,1.4231 -1.58433,9.4909 1.9668,22.1211 3.26205,11.602 5.16396,16.33 14.99218,37.248 4.50908,9.5969 7.66367,17.1954 11.89453,28.6562 2.32669,6.3027 4.28037,8.9228 5.90626,7.918 1.69186,-1.0456 1.50557,-2.649 -1.45704,-12.4804 -1.45202,-4.8187 -4.47069,-15.0598 -6.70703,-22.7598 -5.70195,-19.6326 -14.64098,-47.86 -16.76367,-52.9356 -1.94861,-4.6594 -7.61652,-9.1367 -9.83203,-7.7675 z" />
      <path
         id="path37"
         style="fill:#007395;fill-opacity:1;stroke-width:25.5685;stroke-dasharray:none"
         d="m 764.98633,2010.2363 c -3.98329,1.2417 -6.02251,5.662 -2.56055,12.1504 13.66673,25.6144 17.97756,37.4161 18.59961,50.916 0.64009,13.8914 -2.84882,32.2343 -7.0625,37.1328 -3.68719,4.2866 -5.96289,2.8278 -5.96289,-3.8222 0,-4.3951 -0.5057,-5.3563 -3.17188,-6.0254 -4.87652,-1.224 -10.40826,-0.1609 -11.94531,2.2949 -0.98798,1.5785 -0.86146,3.81 0.44336,7.7637 2.87353,8.7069 14.29584,13.2322 23.18164,9.1836 3.92914,-1.7903 11.9529,-17.0274 14.625,-27.7735 1.67363,-6.7306 1.92747,-7.0569 3.38477,-4.3339 1.51083,2.823 5.39305,3.9213 7.25976,2.0546 1.72898,-1.729 0.8596,-8.9349 -1.37695,-11.4062 -1.24698,-1.3779 -5.73959,-14.5808 -9.98242,-29.3399 -4.90103,-17.0484 -8.98917,-28.6737 -11.20899,-31.8769 -4.3127,-6.2232 -10.23937,-8.1596 -14.22265,-6.918 z" />
      <path
         id="path36"
         style="fill:#007395;fill-opacity:1;stroke-width:25.5685;stroke-dasharray:none"
         d="m 945.85156,1980.7598 c -1.93228,0.3218 -4.16031,1.1921 -5.46289,2.4062 -3.47298,3.2373 -4.2702,64.2836 -1.1875,90.8906 3.14225,27.1211 2.94807,63.6468 -0.52148,97.9434 -0.85315,8.4333 -1.73638,35.4333 -1.96094,60 -0.24409,26.7042 -1.05077,48.42 -2.00781,54 -0.88045,5.1333 -1.66318,17.8712 -1.73828,28.3066 -0.0751,10.4356 -0.41073,18.7007 -0.7461,18.3653 -1.32332,-1.3233 -7.19053,-16.2733 -8.11328,-20.6719 -1.09645,-5.2266 -3.45025,-10.1786 -6.49219,-13.666 -2.44784,-2.8062 -9.45197,-3.0589 -12.99414,-0.4688 -2.37552,1.7371 -2.43309,2.4293 -0.83789,10.1524 3.77502,18.2769 20.69121,53.6013 30.44336,63.5703 6.32058,6.461 7.27257,6.9788 11.33399,6.1777 11.34872,-2.2385 19.48101,-8.0973 24.43164,-17.6015 1.86085,-3.5724 3.23743,-8.5458 3.27343,-11.8301 0.0592,-5.4013 -0.12208,-5.668 -3.875,-5.668 -6.2557,0 -10.14715,2.5103 -12.63476,8.1485 -3.40054,7.7074 -8.47426,13.1855 -12.21289,13.1855 -2.55214,0 -3.21485,-0.6975 -3.21485,-3.3809 0,-1.8592 0.94131,-4.8163 2.0918,-6.5722 2.19222,-3.3457 2.66522,-19.0014 3.81445,-126.0469 0.28032,-26.11 1.26074,-48.5409 2.74024,-62.666 1.93893,-18.5113 2.12843,-27.4986 1.18555,-56.668 -0.61633,-19.0667 -1.18844,-55.0667 -1.26954,-80 -0.0811,-24.9334 -0.24101,-46.0948 -0.35546,-47.0254 -0.12018,-0.9772 -1.75717,-1.2027 -3.68946,-0.8808 z" />
    </g>
    <path
       id="path35"
       style="fill:#000000"
       d="m 1419.0332,1895.6387 c -1.0784,-0.3702 -2.3428,-0.2493 -4.3672,0.1679 -3.8038,0.784 -4.9515,1.8259 -6.207,5.6309 -2.8682,8.6922 -2.7025,22.7956 0.3027,25.8008 2.4311,2.4311 10.6367,2.8137 12.0293,0.5605 0.5219,-0.8445 0.8643,-5.1957 0.7598,-9.6679 -0.1171,-5.0179 0.5514,-9.4079 1.748,-11.4649 2.4575,-4.2246 2.4855,-4.004 -1.0136,-8.2441 -1.2806,-1.5519 -2.1736,-2.413 -3.252,-2.7832 z" />
    <path
       id="path34"
       style="fill:#000000"
       d="m 955.30469,1784.5508 c -0.84125,-0.412 -1.45984,-0.2325 -2.11328,0.4121 -1.28349,1.266 -1.30211,2.3994 -0.0879,5.0644 2.66482,5.8486 1.79183,8.5569 -5.10352,15.8477 -6.733,7.1192 -8.16208,11.2231 -4.86328,13.9609 1.27324,1.0567 2.945,1.0975 5.69531,0.1387 2.98225,-1.0396 5.03247,-3.6153 8.75586,-11 6.04103,-11.9815 6.24161,-15.638 1.16797,-21.2871 -1.54601,-1.7213 -2.60993,-2.7248 -3.45117,-3.1367 z" />
    <path
       id="path33"
       style="fill:#000000"
       d="m 865.99023,1781.334 c -2.30536,0 -3.6058,5.8091 -2.55468,11.4121 0.67397,3.5926 1.50372,4.5879 3.82422,4.5879 1.62948,0 3.36267,-0.3998 3.85156,-0.8887 2.93131,-2.9313 -1.19662,-15.1113 -5.1211,-15.1113 z" />
    <path
       id="path32"
       style="fill:#000000"
       d="m 891.93359,1772.0195 c -9.43936,-0.032 -11.91671,4.1186 -5.99414,10.041 3.82105,3.8211 8.98308,4.2112 13.24024,1 2.1675,-1.6349 2.83661,-3.2272 2.38476,-5.6679 -0.82962,-4.4811 -2.38456,-5.3491 -9.63086,-5.3731 z" />
    <path
       id="path31"
       style="fill:#000000"
       d="m 1079.668,1771.4453 c -3.0307,0.9539 -3.0131,6.0891 0.035,9.8535 2.2692,2.8024 2.7403,2.8588 11,1.3125 4.7461,-0.8886 9.4569,-1.8501 10.4668,-2.1367 1.2856,-0.3648 0.6858,-1.588 -2,-4.0801 -3.9306,-3.6471 -14.8412,-6.4163 -19.5019,-4.9492 z" />
    <path
       id="path30"
       style="fill:#000000"
       d="m 1126.666,1752.3184 c -2.5667,-0.1914 -5.5031,0.1986 -6.5254,0.8652 -4.0091,2.6143 -0.9076,31.9648 3.8848,36.7637 4.2827,4.2886 5.8762,0.9195 6.7812,-14.3457 1.3447,-22.6837 1.3095,-22.8768 -4.1406,-23.2832 z" />
    <path
       id="path29"
       style="fill:#000000"
       d="m 2292.5273,1751.0273 c -1.4605,1.4605 -1.8248,26.5463 -0.4238,29.1641 1.781,3.3277 4.6237,3.1198 7.1914,-0.5254 1.6289,-2.3125 2.0281,-5.7431 1.7422,-14.9707 -0.3626,-11.7012 -0.4532,-11.9998 -4.0117,-13.248 -2.0023,-0.7024 -4.0267,-0.8913 -4.4981,-0.42 z m 37.9649,10.3067 c -3.6621,0 -3.8262,0.2639 -3.8262,6.1855 0,5.5215 -0.8007,7.1779 -7.457,15.416 -5.9539,7.3691 -7.2921,9.8847 -6.6406,12.4805 1.9752,7.87 12.8106,1.1238 19.4043,-12.082 4.2862,-8.5844 4.4326,-9.3721 3.1718,-17 -0.7312,-4.4239 -1.2675,-5 -4.6523,-5 z m 116.1738,1.4375 c -1.5327,-0.3436 -3.3857,-0.03 -5.084,1.0469 -0.9634,0.6109 -2.424,5.0383 -3.2461,9.8378 -1.3048,7.6175 -1.2065,9.1674 0.7813,12.2012 4.1059,6.2664 8.8257,3.5718 8.9766,-5.125 0.051,-2.97 0.61,-6.5998 1.2402,-8.0664 1.4521,-3.3792 1.4537,-3.4123 0.4922,-7 -0.4156,-1.5508 -1.6275,-2.5509 -3.1602,-2.8945 z m -1383.7148,1.5273 c -0.5775,0.028 -1.2611,0.6771 -2.5547,1.9707 -2.8285,2.8284 -5.2358,16.6581 -3.6289,20.8457 1.005,2.619 8.0084,3.0469 9.0156,0.5508 1.4848,-3.6796 0.827,-19.2323 -0.9141,-21.6133 -0.8689,-1.1884 -1.3405,-1.782 -1.9179,-1.7539 z" />
    <path
       id="path28"
       style="fill:#000000"
       d="m 823.42188,1731.3711 c -2.52989,0.3828 -4.75586,2.4832 -4.75586,6.0098 0,2.1742 0.57934,3.9531 1.2871,3.9531 1.80858,0 13.38086,12.2816 13.38086,14.2012 0,0.8696 -2.71903,4.7644 -6.04101,8.6562 -5.18258,6.0717 -5.91769,7.649 -5.17774,11.1094 1.11967,5.2362 1.00568,5.1607 6.31836,4.164 3.67248,-0.689 5.17452,-2.0155 7.72657,-6.8261 3.50707,-6.611 5.97596,-7.543 7.73437,-2.918 1.92771,5.0702 4.75315,6.7301 8.00195,4.7012 3.49941,-2.1854 3.53945,-6.4171 0.10352,-10.7852 -4.16874,-5.2997 -3.41409,-9.7734 2.66602,-15.7929 2.93331,-2.9041 5.33398,-5.6682 5.33398,-6.1426 0,-2.1889 -6.11732,-7.0352 -8.88086,-7.0352 -2.26551,0 -3.60244,1.2426 -5.04102,4.6856 -1.07671,2.577 -2.88161,5.0397 -4.00976,5.4726 -2.31397,0.888 -10.73829,-5.5059 -12.06641,-9.1582 -1.2155,-3.3427 -4.0502,-4.6777 -6.58007,-4.2949 z m 99.86914,33.9629 c -5.95866,0 -6.50555,1.4652 -5.0879,13.6328 l 1.13086,9.6992 4.33204,0.418 4.33398,0.418 v -12.084 -12.084 z" />
    <path
       id="path27"
       style="fill:#000000"
       d="m 2405.4824,1727.3281 c -1.1764,0.054 -1.9524,0.5576 -3.039,1.541 -5.0345,4.5562 -2.4971,9.7969 4.7441,9.7969 5.0487,0 8.001,3.0749 6.9551,7.2422 -2.4188,9.6373 -13.9058,13.5359 -19.3789,6.5781 -1.5199,-1.9323 -2.7637,-4.8607 -2.7637,-6.5097 0,-4.2817 -6.039,-5.3241 -8.7148,-1.5039 -1.0739,1.5331 -1.9512,3.7419 -1.9512,4.9082 0,1.1662 -1.7888,3.8336 -3.9746,5.9277 l -3.9746,3.8066 -2.0645,-4.9414 c -1.4078,-3.3694 -1.9473,-8.2155 -1.6933,-15.2246 0.3689,-10.178 0.3386,-10.2832 -2.961,-10.2832 -3.254,0 -3.3586,0.3083 -4.3906,12.9414 -0.9515,11.6492 -0.7838,13.4754 1.6719,18.2891 1.5005,2.9412 3.877,5.9633 5.2812,6.7148 3.6806,1.9698 10.4514,0.2164 13.3379,-3.4531 3.1176,-3.9635 5.873,-4.0149 8.4356,-0.1582 1.7264,2.5984 3.0756,2.9781 10.082,2.8398 10.1462,-0.2004 19.0051,-4.9391 22.8535,-12.2265 3.1718,-6.0064 3.2448,-7.1314 0.8457,-12.8731 -2.6857,-6.4278 -6.9221,-10.1752 -13.8613,-12.2636 -2.6861,-0.8084 -4.263,-1.2028 -5.4395,-1.1485 z" />
    <path
       id="path26"
       style="fill:#000000"
       d="m 2274.0781,1725.334 c 0.3234,0 0.5879,0.5986 0.5879,1.332 0,0.7333 -0.6354,1.334 -1.4121,1.334 -0.7766,0 -1.0412,-0.6007 -0.5879,-1.334 0.4532,-0.7334 1.0887,-1.332 1.4121,-1.332 z" />
    <path
       id="path25"
       style="fill:#000000"
       d="m 1031.1738,1725.334 c -5.8787,0 -7.1325,0.4342 -7.8613,2.7305 -1.1023,3.4728 2.58,9.2695 5.8887,9.2695 7.809,0 6.0563,12.3083 -2.0723,14.5527 -5.3623,1.4806 -9.3322,0.3397 -13.0019,-3.7344 -4.2179,-4.6824 -7.9855,-3.5944 -13.3321,3.8477 -5.02103,6.9889 -6.28949,7.7395 -8.44724,5 -2.53067,-3.213 -3.12684,-9.3674 -1.61328,-16.6582 1.23204,-5.9348 1.18514,-7.5682 -0.24024,-8.4492 -2.46956,-1.5262 -6.49414,2.447 -6.49414,6.4101 0,1.772 -0.9,4.1207 -2,5.2207 -3.09138,3.0914 -2.42528,6.4787 2.97461,15.1172 6.29417,10.0693 10.9796,12.4522 15.72069,7.9981 1.7921,-1.6836 3.6234,-4.2074 4.0684,-5.6094 0.7266,-2.2892 1.6694,-2.4563 9.25,-1.6445 12.0191,1.2871 24.6484,-2.9338 29.4394,-9.8379 4.3844,-6.3182 3.6686,-14.8673 -1.7148,-20.4864 -3.021,-3.153 -4.6476,-3.7265 -10.5645,-3.7265 z m 31.9785,7.0781 c -3.5342,-1.3562 -6.5351,1.496 -6.0683,5.7676 0.5139,4.7039 3.3392,7.7882 6.1465,6.7109 2.9786,-1.143 2.9149,-11.3299 -0.078,-12.4785 z m -189.53902,15.9395 c -1.02341,-0.7297 -2.67346,-0.01 -3.97656,2.8496 -1.2373,2.7155 -1.07792,3.2997 1.05469,3.8574 1.38262,0.3616 2.79473,-0.028 3.13867,-0.8672 1.20216,-2.9319 0.80662,-5.1102 -0.2168,-5.8398 z" />
    <path
       id="path24"
       style="fill:#000000"
       d="m 2301.7754,1720.4902 c -2.7544,-0.6914 -4.1098,-0.2111 -6,2.1231 -2.7474,3.393 -3.1024,6.997 -1.0625,10.8086 1.899,3.5483 4.5824,3.2279 7.8574,-0.9356 1.5199,-1.9323 2.7637,-5.2194 2.7637,-7.3066 0,-2.9997 -0.7457,-3.9836 -3.5586,-4.6895 z" />
    <path
       id="path23"
       style="fill:#000000"
       d="m 2444.1133,1720.2656 c -3.2745,0.3807 -3.4303,0.7611 -3.1406,7.5645 0.1677,3.9394 0.9894,7.9894 1.8281,9 2.1083,2.5403 6.1407,2.3 7.6836,-0.4571 1.6406,-2.9316 0.8372,-11.9766 -1.291,-14.541 -0.8979,-1.0819 -3.184,-1.7868 -5.0801,-1.5664 z" />
    <path
       id="path22"
       style="fill:#000000"
       d="m 1430.9707,1713.4844 c -1.6997,-0.2802 -3.6234,0.1044 -5.6289,1.1777 -2.8924,1.5479 -6.678,13.4059 -6.666,20.877 0.01,4.3267 0.6486,5.4923 4.1074,7.4609 2.2548,1.2833 4.9352,2.334 5.957,2.334 2.5573,0 5.9223,-6.9411 5.9473,-12.2676 0.011,-2.4197 0.6016,-5.3004 1.3125,-6.4004 1.9025,-2.944 1.6116,-7.0086 -0.7422,-10.3691 -1.1116,-1.5872 -2.5874,-2.5324 -4.2871,-2.8125 z m 809.1348,0.1523 c -3.4317,0.6715 -1.7353,7.8046 3.0996,13.0293 5.1191,5.5317 8.7992,11.2394 8.7832,13.6211 -0.01,0.9425 -1.9981,3.8122 -4.4258,6.3789 -9.941,10.51 -11.355,17.334 -3.5918,17.334 3.8966,0 9.503,-5.2547 12.4082,-11.6309 2.3863,-5.2373 4.9337,-3.9756 13.9531,6.9043 6.8227,8.2301 9.4607,-1.274 3.043,-10.9629 -6.4453,-9.7306 -6.4579,-11.3371 -0.1426,-18.5117 3.0293,-3.4415 5.0218,-6.7439 4.4278,-7.3379 -1.3386,-1.3386 -11.2001,3.4182 -14.3868,6.9395 -3.7562,4.1506 -5.6377,3.1209 -9.9648,-5.4512 -4.0293,-7.982 -8.253,-11.281 -13.2031,-10.3125 z" />
    <path
       id="path21"
       style="fill:#000000"
       d="m 1736.5645,1541.623 c -3.7488,1.708 -3.6115,0.3339 -1.8575,18.8301 1.9237,20.2861 8.609,33.0705 13.1856,25.2129 1.8334,-3.1477 1.7664,-4.7457 -0.4492,-10.6387 -1.665,-4.4283 -2.884,-12.7458 -3.8907,-26.541 -0.4535,-6.2148 -2.9767,-8.6912 -6.9882,-6.8633 z m 132.9121,3.1309 c -0.2884,0.2848 -1.9986,5.4816 -3.7989,11.5488 -4.128,13.9119 -5.2897,32.1922 -3.0215,47.5235 2.9504,19.9408 3.2124,20.8398 6.0704,20.8398 2.4851,0 2.5893,-0.9032 2.2207,-19.332 -0.3373,-16.8607 0.032,-21.0399 2.8906,-32.668 1.8028,-7.3334 3.3267,-16.4132 3.3867,-20.1777 0.1025,-6.4418 -0.1077,-6.8858 -3.5586,-7.5488 -2.0167,-0.3874 -3.901,-0.4703 -4.1894,-0.1856 z m -83.4649,27.4063 c -2.0301,0.2159 -4.004,1.0353 -5.6777,2.4316 -3.9779,3.3185 -3.7851,5.9045 0.666,8.9121 2.9539,1.996 6.2141,2.4763 16.7734,2.4863 11.4423,0.01 13.348,-0.3187 15,-2.5781 3.6655,-5.0128 1.4945,-6.7531 -9.8339,-7.8809 -4.6171,-0.4594 -9.5295,-1.4425 -10.9141,-2.1835 -1.8988,-1.0162 -3.9836,-1.4035 -6.0137,-1.1875 z" />
    <path
       id="path20"
       style="fill:#000000"
       d="m 1264,1528.666 c 0.7333,0.4532 1.334,1.0539 1.334,1.334 0,0.2801 -0.6007,0.8808 -1.334,1.334 -0.7333,0.4533 -1.334,-0.1474 -1.334,-1.334 0,-1.1866 0.6007,-1.7873 1.334,-1.334 z" />
    <path
       id="path19"
       style="fill:#000000"
       d="m 412.64062,1513.5742 c -3.37493,-0.8955 -7.11949,2.5545 -6.15039,7.541 0.66812,3.4378 9.78358,14.8871 11.96875,15.0332 7.10288,0.4747 15.27173,-2.3654 16.64844,-5.7871 4.17305,-10.3718 -5.73746,-20.4543 -14.08203,-14.3261 l -3.64258,2.6738 -1.67969,-2.6875 c -0.85454,-1.3684 -1.93751,-2.1488 -3.0625,-2.4473 z m 129.78321,1.1133 c -2.47255,-0.014 -3.85089,0.8429 -4.46485,2.7773 -1.5397,4.8512 1.89361,20.8325 4.5879,21.3536 6.85299,1.3255 8.25011,0.8063 14.06835,-5.2344 6.84268,-7.1043 7.97922,-12.4581 3.18946,-15.0215 -2.32647,-1.2451 -3.08771,-1.1298 -4.06641,0.6191 -1.59196,2.8447 -4.93628,2.7438 -6.01562,-0.1816 -1.16993,-3.1709 -3.06162,-4.2885 -7.29883,-4.3125 z m -45.75586,0.1211 c -1.12713,-0.06 -2.51665,0.6342 -4.55859,2.0644 -1.73275,1.2137 -5.01061,2.588 -7.28321,3.0528 -3.567,0.7295 -4.25258,1.5675 -5.01758,6.1269 -1.32847,7.9178 -4.3e-4,12.4467 4.30274,14.6719 6.80398,3.5185 11.78657,1.4527 16.38281,-6.791 2.3913,-4.2889 1.99696,-12.1157 -0.83984,-16.6582 -0.99417,-1.5919 -1.8592,-2.4068 -2.98633,-2.4668 z m 2365.01953,11.9746 c -1.0446,0.251 -1.9123,1.2408 -2.2461,2.8828 -0.3354,1.65 -0.9543,6.9014 -1.375,11.668 -0.4208,4.7667 -1.6589,11.6111 -2.75,15.2109 -3.0697,10.1271 -2.6504,15.2083 1.4063,17.0567 2.8705,1.3079 3.7938,1.1417 6.0234,-1.0879 1.4482,-1.4481 3.1358,-5.3073 3.75,-8.5742 1.3835,-7.3589 0.2846,-33.3386 -1.5059,-35.6055 -1.0368,-1.3127 -2.2581,-1.8018 -3.3027,-1.5508 z" />
    <path
       id="path18"
       style="fill:#000000"
       d="m 1442.2148,1500.2344 c -6.7154,-0.7688 -11.036,4.8689 -12.9043,16.8379 -1.665,10.6658 -0.1927,16.2259 5.2715,19.9082 5.2951,3.5684 7.1721,3.742 9.9903,0.9238 2.999,-2.999 2.6754,-9.5186 -0.5723,-11.5469 -3.3874,-2.1153 -3.3669,-5.089 0.078,-11.8418 1.5513,-3.0408 2.5642,-7.2188 2.3321,-9.6133 -0.3433,-3.5418 -1.0304,-4.3056 -4.1954,-4.6679 z" />
    <path
       id="path17"
       style="fill:#000000"
       d="m 751.62305,1485.3848 c -2.91679,0.4219 -4.95703,2.0267 -4.95703,4.6484 0,5.1099 1.42677,7.2912 6.49804,9.9336 7.26648,3.7862 12.38742,9.1567 11.91211,12.4922 -0.39286,2.7569 -1.04928,2.875 -15.95703,2.875 -8.55106,0 -16.00022,0.45 -16.55469,1 -0.55448,0.55 -6.23484,1 -12.62304,1 -7.57806,0 -13.37066,0.7325 -16.66602,2.1094 -6.73761,2.8152 -45.09556,3.1323 -52.25195,0.4316 -2.23843,-0.8447 -3.26661,-0.5554 -4.15235,1.168 -3.52241,6.8539 3.13468,9.3298 27.25,10.1386 15.25214,0.5115 22.20661,0.1681 29.87891,-1.4746 11.44645,-2.4508 20.56148,-2.3733 30.54297,0.2598 6.02612,1.5896 7.87311,1.5671 13.70898,-0.166 5.08001,-1.5086 7.11773,-1.6239 8.24805,-0.4688 1.11894,1.1434 0.48208,2.3559 -2.5,4.7618 -2.2,1.7748 -4.93697,3.2324 -6.08203,3.2324 -2.69922,0.01 -7.91797,4.8813 -7.91797,7.3926 0,1.0712 1.13043,3.0776 2.51172,4.4589 4.83573,4.8358 11.64911,1.2245 30.4082,-16.1152 6.15892,-5.6929 7.58901,-6.3965 13,-6.3965 6.06441,0 6.08008,-0.01 6.08008,-4.6855 0,-2.7437 -1.65838,-7.6263 -4,-11.7754 -2.2,-3.8982 -4,-8.0486 -4,-9.2227 0,-2.7059 -5.7689,-6.7863 -12.66602,-8.959 -2.93331,-0.9241 -7.20564,-2.8078 -9.49218,-4.1855 -3.50879,-2.1142 -7.30198,-2.8751 -10.21875,-2.4531 z" />
    <path
       id="path16"
       style="fill:#000000"
       d="m 1626.0684,1475.543 c -1.2886,-0.4946 -1.686,-0.1001 -1.1934,1.1836 0.4061,1.0585 1.2751,1.5932 1.9316,1.1875 1.6535,-1.0219 1.5016,-1.5116 -0.7382,-2.3711 z" />
    <path
       id="path15"
       style="fill:#000000"
       d="m 2081.1641,1464.1426 c -1.7711,-0.1501 -3.3882,0.3203 -5.6387,1.3457 -2.1268,0.969 -3.4731,2.8801 -3.8535,5.4726 -0.5309,3.6168 0.312,4.6756 9.1582,11.5118 5.3579,4.1405 11.2634,8.6062 13.123,9.9238 3.9285,2.7834 4.7249,7.0799 1.0469,5.6465 -1.2833,-0.5001 -5.934,-1.7808 -10.334,-2.8457 -4.4,-1.0648 -10.8993,-2.8143 -14.4433,-3.8868 -12.4063,-3.7542 -29.7973,-5.0317 -52.2227,-3.8359 -23.7336,1.2655 -47.8566,1.4646 -60,0.4961 l -8,-0.6367 -0.4023,4.1328 c -0.6151,6.3105 3.1588,7.9701 20.4023,8.9668 9.4024,0.5434 21.3674,0.1542 33.334,-1.0859 27.7665,-2.8776 42.0597,-2.5844 58.9648,1.2128 26.9787,6.0602 35.7641,7.4395 47.3985,7.4395 9.8585,0 12.0434,-0.4067 14.3027,-2.666 1.4667,-1.4666 2.666,-3.4342 2.666,-4.3711 0,-3.3432 -4.288,-7.7303 -10.7598,-11.0098 -12.812,-6.4925 -6.1219,-8.0379 10.711,-2.4746 12.9298,4.2734 16.7335,7.7935 15.5039,14.3477 -0.4789,2.5528 -2.203,5.8617 -3.8301,7.3535 -8.0584,7.3884 -14.8062,12.1543 -17.2109,12.1543 -1.4674,0 -4.4582,1.2733 -6.6446,2.8301 -2.9403,2.0937 -4.3632,2.4413 -5.4707,1.3339 -0.8235,-0.8235 -3.7339,-1.498 -6.4668,-1.498 -5.3731,0 -6.3511,1.5072 -5.3867,8.3008 0.4148,2.9221 1.4002,3.7987 5.0352,4.4804 7.2505,1.3602 14.839,-0.5654 28.4062,-7.2089 5.7618,-2.8213 15.6841,-13.1675 20.4356,-21.3086 7.2187,-12.3683 3.7702,-18.1759 -16.7832,-28.2637 -11.2033,-5.4987 -15.9544,-7.0176 -27.5391,-8.8008 -7.7,-1.1852 -16.2245,-3.2884 -18.9453,-4.6758 -2.8605,-1.4586 -4.7856,-2.2307 -6.5566,-2.3808 z" />
    <path
       id="path14"
       style="fill:#000000"
       d="m 2756.4004,1464 c -9.4981,0 -29.0034,6.9788 -31.9121,11.418 -1.0734,1.6384 -3.7518,3.7249 -5.9531,4.6367 -3.6207,1.4999 -3.9661,2.1646 -3.6036,6.9687 0.3631,4.812 0.9791,5.6104 6.5489,8.5196 3.7105,1.9381 10.0519,3.6534 16,4.3281 14.3613,1.629 19.2895,4.0372 20.4023,9.9687 1.2879,6.8656 -0.5285,9.1415 -11.2344,14.0762 -11.0097,5.0747 -13.9536,9.0284 -9.9863,13.4121 4.3723,4.8314 14.1705,2.576 20.9707,-4.8261 3.5344,-3.8472 9.6387,-11.4661 12.1465,-15.1582 1.2413,-1.8278 1.9492,-4.1272 1.5723,-5.1094 -0.3769,-0.9822 -0.6856,-2.4909 -0.6856,-3.3516 0,-2.898 -10.5197,-12.7633 -17.2422,-16.1699 -3.6672,-1.8583 -8.4391,-3.3789 -10.6035,-3.3789 -5.0665,0 -8.1543,-1.2092 -8.1543,-3.1914 0,-2.578 16.8198,-10.1426 22.5508,-10.1426 5.602,0 6.7832,-1.4134 6.7832,-8.1094 0,-3.844 -0.092,-3.8906 -7.5996,-3.8906 z" />
    <path
       id="path13"
       style="fill:#000000"
       d="m 993.24414,1399.1992 c -6.24246,2.2923 -8.62416,11.4175 -2.6582,19.002 1.51093,1.9209 2.74804,4.6472 2.74804,6.0605 0,3.0165 3.37583,14.5274 6.09571,20.7832 1.04711,2.4082 1.90431,6.3945 1.90431,8.8574 0,2.4629 1.7375,11.8928 3.8613,20.9551 2.1237,9.0622 4.5681,21.5752 5.4336,27.8086 0.8655,6.2333 2.3861,17.0333 3.3789,24 0.9929,6.9666 2.5246,17.7666 3.4043,24 0.8797,6.2333 2.4228,15.1211 3.4277,19.75 2.8992,13.3543 2.6424,14.5956 -3.3418,16.207 -3.941,1.0612 -5.9853,0.967 -8.6132,-0.3964 -5.6004,-2.9055 -33.05929,-1.1582 -48.21878,3.0683 -2.93334,0.8178 -10.13336,1.7108 -16,1.9863 -5.86667,0.2757 -12.16669,1.0689 -14,1.7618 -1.83334,0.6929 -6.33336,1.6905 -10,2.2168 -3.66667,0.5264 -12.55977,2.1086 -19.76368,3.5156 -7.20388,1.407 -15.77779,2.5586 -19.05273,2.5586 h -5.95508 l 0.6543,-29.668 c 1.92704,-87.4603 2.21003,-126.3982 0.98437,-135.4961 -0.72837,-5.4063 -1.05227,-10.5363 -0.7207,-11.4004 0.33157,-0.864 4.33353,-2.3294 8.89453,-3.2578 4.56102,-0.9284 9.49232,-2.3997 10.95899,-3.2676 1.69933,-1.0057 10.43185,-1.6724 24.07226,-1.8379 28.06089,-0.3404 31.16919,-1.0013 31.24219,-6.6523 0.0389,-3.0063 -2.45089,-8.0604 -4.32422,-8.7793 -2.66912,-1.0242 -45.98418,2.4719 -52.55859,4.2422 -3.00945,0.8103 -11.88983,2.3757 -19.73243,3.4766 -7.84258,1.1009 -15.33383,2.5758 -16.64843,3.2793 -3.63536,1.9456 -4.35428,8.0735 -1.42578,12.1543 7.7027,10.7336 9.26247,32.0004 8.40429,114.539 -0.57162,54.977 -0.80305,59.704 -3.15625,64.375 -6.40768,12.7188 -2.43424,14.4547 23.84571,10.4238 10.78873,-1.6549 22.0159,-3.5241 24.94921,-4.1543 23.00936,-4.9433 34.88501,-7.1224 66.66602,-12.2363 10.21038,-1.6429 39.2011,-0.2678 45.6973,2.168 7.5018,2.8129 11.9506,3.5638 15.6367,2.6387 2.7754,-0.6966 3.332,-1.6323 3.332,-5.5879 0,-2.613 -1.503,-8.5066 -3.3398,-13.0977 -1.8368,-4.5912 -3.8947,-11.8392 -4.5742,-16.1055 -0.6794,-4.2664 -2.484,-15.2572 -4.0098,-24.4238 -1.5258,-9.1667 -3.696,-23.5667 -4.8242,-32 -2.5515,-19.0734 -14.2532,-76.512 -18.0352,-88.5312 -0.6691,-2.1261 -1.2168,-6.2061 -1.2168,-9.0664 0,-5.9203 -2.8691,-12.3504 -6.0586,-13.5743 -2.77292,-1.064 -5.28244,-1.059 -7.36326,-0.2949 z m 679.95506,6.1348 c -3.1083,0 -9.354,5.2015 -10.4043,8.666 -0.6669,2.2 -1.191,15.1027 -1.166,28.6719 0.025,13.5693 -0.3685,27.6842 -0.875,31.3672 -0.8209,5.9684 -1.4564,6.982 -5.8379,9.3281 -3.8947,2.0854 -5.0029,3.533 -5.334,6.9668 -0.3399,3.5258 0.1669,4.5563 2.7207,5.5273 5.6614,2.1524 6.2046,3.9343 4.9082,16.1387 -1.5253,14.3586 0.1692,22.9849 4.9434,25.1602 6.998,3.1885 12.5117,1.4403 12.5117,-3.9688 0,-3.3971 -0.4774,-3.8574 -4,-3.8574 -4.4303,0 -4.6528,-0.8692 -4.039,-15.707 0.5052,-12.2137 1.472,-14.0997 8.125,-15.8536 3.253,-0.8577 8.9451,-1.607 12.6484,-1.666 3.7033,-0.059 7.452,-0.827 8.332,-1.707 1.8917,-1.8916 2.1278,-7.2498 0.3672,-8.3379 -0.6784,-0.4193 -2.7603,-0.065 -4.6269,0.7852 -2.5779,1.1734 -3.8443,1.1715 -5.2676,-0.01 -1.0306,-0.8552 -4.7509,-1.8472 -8.2676,-2.2031 -3.5167,-0.3558 -6.6051,-0.8571 -6.8633,-1.1153 -0.2582,-0.2582 0.2308,-8.8056 1.086,-18.9941 1.8092,-21.5522 2.47,-59.1914 1.039,-59.1914 z m 597.9063,2.7519 c 2.8344,-0.035 6.8801,0.5692 12.2285,1.8106 6.0401,1.4019 20.5613,1.8893 59.2734,1.9883 28.2007,0.072 51.7164,0.577 52.2578,1.123 0.5414,0.546 1.2054,13.2929 1.4746,28.3262 0.2692,15.0334 1.214,32.732 2.0997,39.332 3.1435,23.4271 5.5905,44.1951 6.9003,58.5664 0.73,8.0107 1.2413,17.9107 1.1368,22 -0.2986,11.6823 -2.1168,31.7744 -3.0059,33.2129 -1.5994,2.5879 -13.8493,2.9615 -33.7891,1.0313 -11.1747,-1.0817 -20.8424,-2.2907 -21.4843,-2.6875 -1.8709,-1.1562 -23.4631,-3.3065 -41.5313,-4.1348 -18.4015,-0.8435 -42.6439,-4.1233 -44.5644,-6.0293 -1.2675,-1.258 0.8157,-63.1417 3.2754,-97.291 0.7131,-9.9 0.9674,-18.8732 0.5644,-19.9395 -0.9951,-2.633 -0.8133,-52.6435 0.2012,-55.2871 0.5039,-1.3133 2.1284,-1.9866 4.9629,-2.0215 z m -1343.06448,42.4356 c -4.39417,-1.3165 -6.04826,-1.2774 -8.81836,0.2051 -5.2689,2.8198 -9.27075,7.3806 -10.77539,12.2832 -1.31002,4.2685 -0.69642,22.0897 1.64257,47.6992 0.89567,9.8066 0.8394,10.076 -2.41015,11.5566 -3.25788,1.4844 -5.42486,6.9091 -3.80664,9.5274 0.44163,0.7146 2.59783,1.5044 4.79297,1.7539 3.04013,0.3455 4.52099,1.5644 6.21093,5.1191 3.19839,6.7276 6.15607,20.3223 7.17969,33 0.88288,10.935 0.90894,11 4.60352,11 2.89739,0 3.91057,-0.7682 4.59375,-3.4902 1.26559,-5.0426 -0.38491,-20.7873 -3.51172,-33.4981 -1.48671,-6.0436 -2.3562,-11.8936 -1.93164,-13 0.49017,-1.2774 2.52278,-2.0117 5.56836,-2.0117 6.50173,0 9.8861,-1.97 9.02734,-5.2539 -1.0446,-3.9946 -6.4911,-6.9022 -12.10742,-6.4648 l -4.96485,0.3867 -0.875,-24 c -0.48094,-13.2 -0.59117,-25.0507 -0.24414,-26.334 1.03231,-3.8175 4.13844,-2.6576 5.72071,2.1367 1.48532,4.5006 6.9964,8.3477 9.6289,6.7207 0.7508,-0.464 2.21227,-2.7223 3.2461,-5.0176 4.19464,-9.3126 -1.27719,-18.8751 -12.76953,-22.3183 z m 687.35548,22.8125 c -1.7011,0 -7.3965,3.2436 -7.3965,4.2129 0,0.6156 -0.925,1.1191 -2.0566,1.1191 -1.1315,0 -5.6753,3.5736 -10.0957,7.9395 -6.5645,6.4835 -7.9589,8.6145 -7.6094,11.6347 0.2353,2.0337 1.6291,4.319 3.0957,5.0782 1.4667,0.7592 4.3195,2.4942 6.3398,3.8554 2.7381,1.8448 4.1219,2.1017 5.4375,1.0098 2.3543,-1.9538 19.0382,13.343 17.5,16.0449 -2.7608,4.8493 -7.028,7.8956 -13.8086,9.8594 -9.4496,2.7368 -10.8027,3.8971 -10.8027,9.2539 0,3.6452 0.5714,4.4569 3.5352,5.0234 5.2941,1.012 18.6967,-5.6111 26.7988,-13.2422 3.85,-3.626 7,-7.6406 7,-8.9218 0,-2.7388 -7.768,-15.1599 -11.6113,-18.5664 -1.4671,-1.3003 -5.6053,-3.4085 -9.1954,-4.6856 -12.2322,-4.3517 -12.5687,-5.69 -3.1933,-12.6894 6.2676,-4.6792 6.666,-5.3368 6.666,-10.9532 0,-3.2858 -0.2714,-5.9726 -0.6035,-5.9726 z m -299.7403,26.0254 c -9.3198,-0.4524 -14.2789,10.5253 -6.5585,14.5176 2.0701,1.0705 4.5431,2.8867 5.4961,4.0351 1.5309,1.8448 0.9765,2.0987 -4.7637,2.1817 -18.7591,0.271 -60.5462,3.5494 -65.8301,5.164 -5.6443,1.7247 -58.7501,4.4308 -64.7734,3.3008 -6.0396,-1.133 -9.8926,1.2771 -9.8926,6.1875 0,7.2968 4.4708,7.6608 49.332,4.0098 9.9,-0.8057 22.2007,-2.0507 27.334,-2.7676 5.1333,-0.717 14.5591,-1.6428 20.9453,-2.0567 6.3863,-0.4138 13.5813,-1.3189 15.9902,-2.0097 7.5763,-2.1729 45.7258,-1.573 51.4258,0.8086 5.5807,2.3318 9.9191,1.6877 13.9551,-2.0723 4.6964,-4.3754 6.4868,-0.6031 3.6191,7.623 -0.9788,2.8076 -5.9729,7.4565 -16.6386,15.4903 -20.1401,15.17 -24.3929,17.2585 -35.752,17.5586 -10.2804,0.2715 -11.7672,1.4193 -11.2265,8.6699 0.3451,4.6286 0.4046,4.6702 7.2441,5.0664 18.024,1.0439 44.1358,-14.4765 65.125,-38.709 3.9813,-4.5966 7.2544,-9.4871 7.2754,-10.8672 0.094,-6.3291 -10.524,-16.736 -24.7988,-24.3066 -17.5517,-9.3084 -22.8833,-11.5998 -27.5079,-11.8242 z m 416.8379,0.8203 c -1.1527,-0.1328 -2.15,0.2559 -3.6972,1.084 -4.9445,2.6462 -4.6653,8.154 0.6386,12.6172 4.4848,3.7736 6.6904,4.1913 10.7266,2.0312 2.0306,-1.0868 2.5587,-2.5299 2.2461,-6.1465 -0.3319,-3.84 -1.3219,-5.2572 -5.2773,-7.5429 -2.175,-1.2569 -3.484,-1.9102 -4.6368,-2.043 z" />
    <path
       id="path12"
       style="fill:#000000"
       d="m 2254.7949,1392.3711 c -1.6002,0.2316 -2.688,0.8608 -4.1094,2.0117 -3.2668,2.6455 -3.2725,2.6924 -1.5156,12.4688 0.97,5.3978 2.2533,16.4158 2.8516,24.4824 0.5982,8.0667 1.7569,22.3429 2.5742,31.7265 0.8174,9.3838 1.1193,17.6551 0.6719,18.379 -1.4079,2.278 -3.0582,96.3759 -1.7344,98.8945 0.9056,1.7231 0.7116,2.332 -0.7441,2.332 -4.0498,0 -7.4505,7.8471 -5.043,11.6367 1.0599,1.6684 55.3455,7.0313 71.1738,7.0313 4.2707,0 13.6198,0.8784 20.7754,1.9531 7.1555,1.0748 22.9008,2.8358 34.9902,3.9141 40.5681,3.6184 42.3453,3.6955 43.5411,1.8457 0.6089,-0.9419 1.4887,-5.9136 1.955,-11.0469 1.0766,-11.8525 -0.015,-62.7704 -1.5722,-73.334 -0.6485,-4.4 -2.0918,-16.3993 -3.2071,-26.666 -1.1152,-10.2667 -2.7341,-25.042 -3.5976,-32.834 -1.5206,-13.723 -1.3514,-18.3279 2.1562,-58.9062 0.3471,-4.0155 -0.2718,-5.7837 -2.9707,-8.4825 l -3.4101,-3.4082 -16.1231,1.42 c -11.0811,0.9764 -28.6326,1.022 -56.123,0.1445 -62.1949,-1.9853 -64.8308,-2.1004 -73.3516,-3.1856 -3.4747,-0.4425 -5.5873,-0.6085 -7.1875,-0.3769 z m 325.0137,64.9629 c -1.4339,0 -4.3774,0.9143 -6.541,2.0332 -3.008,1.5555 -3.9336,2.9598 -3.9336,5.9687 0,4.7485 2.9632,6.9182 13.6406,9.9805 8.0515,2.3094 10.2198,4.0225 7.9551,6.2871 -0.9392,0.9392 -2.7407,0.6878 -5.7207,-0.7988 -2.3926,-1.1936 -7.3939,-2.5201 -11.1133,-2.9473 -8.6326,-0.9913 -66.3893,1.8126 -70.6426,3.4297 -1.7649,0.6711 -12.7456,1.6401 -24.4023,2.1524 -19.7313,0.8671 -21.904,0.7217 -31.4668,-2.1172 -9.9163,-2.9438 -10.3633,-2.9673 -12.9278,-0.6465 -3.8238,3.4607 -3.2966,6.1462 2.045,10.4082 4.659,3.7175 4.9163,3.759 28.334,4.4863 18.6367,0.5789 25.4639,0.3002 32.2988,-1.3183 14.2166,-3.3665 65.7415,-5.5839 83.6328,-3.5997 8.2314,0.9128 15.8619,1.3148 16.957,0.8946 2.8585,-1.097 3.7976,1.2366 1.916,4.7597 -3.3731,6.3158 -11.8822,13.6282 -21.9921,18.9024 -10.681,5.5721 -12.9194,8.4242 -9.6778,12.3301 2.1693,2.6138 10.4534,1.8717 17.7481,-1.5899 2.8296,-1.3427 11.6307,-8.3313 19.5566,-15.5293 7.9259,-7.1981 14.922,-13.0859 15.5488,-13.0859 0.6268,0 2.4537,-1.2235 4.0586,-2.7188 3.5306,-3.2892 4.0307,-12.0315 0.8399,-14.6797 -3.8151,-3.166 -43.4683,-22.6015 -46.1133,-22.6015 z m -251.875,0.059 c -9.8991,-0.4072 -19.6492,5.1713 -24.5566,15.0195 -3.1811,6.3836 -3.377,7.9898 -3.377,27.6094 v 20.8301 l -4.334,1.9082 c -8.8689,3.9035 -5.3773,14.9406 4.541,14.3554 2.7799,-0.164 5.4087,0.055 5.8418,0.4883 0.4332,0.4331 1.1997,6.9994 1.7032,14.5918 l 0.914,13.8047 h 4 4 v -14.666 -14.668 h 8.0039 8.0039 l -0.4765,-5 c -0.4495,-4.7124 -0.7404,-5 -5.0469,-5 -6.4567,0 -13.3928,-3.2267 -14.5117,-6.7519 -1.5037,-4.7376 0.6768,-26.5217 3.4609,-34.5801 2.8186,-8.1583 8.9147,-14.668 13.7363,-14.668 1.7194,0 5.3995,1.5424 8.1778,3.4278 3.3332,2.2618 6.0762,3.1718 8.0683,2.6718 2.5565,-0.6417 2.9169,-1.423 2.3496,-5.0957 -0.8525,-5.5183 -3.3053,-8.2199 -10.7226,-11.8105 -3.1592,-1.5294 -6.4757,-2.3311 -9.7754,-2.4668 z m 531.1777,4.7363 c -4.2005,0.788 -4.4453,1.1434 -4.4453,6.4356 0,4.6599 0.6641,6.0901 3.9473,8.5175 5.045,3.7299 12.4577,3.847 16.0527,0.252 2.7242,-2.7242 3.444,-7.3798 1.5918,-10.2949 -1.7652,-2.7782 -12.3512,-5.8098 -17.1465,-4.9102 z" />
    <path
       id="path11"
       style="fill:#000000"
       d="m 2805.6641,1380.6914 c -2.8341,-0.5317 -5.0674,-0.3221 -5.5899,0.5234 -0.4785,0.7742 -0.1264,8.4669 0.7832,17.0957 2.1923,20.8013 2.1857,30.9753 -0.031,43.0235 -1.012,5.5 -1.948,13.882 -2.0801,18.6269 -0.1322,4.7448 -0.8091,9.3113 -1.5039,10.1485 -0.6948,0.8371 -4.7618,1.8388 -9.0371,2.2265 -13.5417,1.2279 -21.3417,7.4556 -19.5508,15.6094 0.7496,3.4132 1.5197,4.0547 4.873,4.0547 2.2313,0 5.9754,-1.5185 8.5118,-3.4531 2.4903,-1.8994 7.034,-3.7902 10.0976,-4.2012 l 5.5703,-0.7461 -0.9863,22.5332 c -0.5424,12.3937 -1.5661,23.619 -2.2754,24.9453 -1.5993,2.9906 -0.278,9.5147 2.3731,11.7149 1.5895,1.3192 2.3828,1.2441 4.0117,-0.3848 1.5945,-1.5945 2.1522,-6.5787 2.5957,-23.2187 0.3107,-11.6537 1.0177,-23.8895 1.5703,-27.1895 0.984,-5.8771 1.1617,-6.0538 8.7324,-8.6602 v 0 c 7.1445,-2.4597 7.6647,-2.9139 6.8906,-5.998 -1.0801,-4.3034 -1.0454,-4.2773 -6.9395,-5.2598 l -5.0136,-0.8359 0.2656,-14.6231 c 0.1465,-8.0426 0.8845,-18.223 1.6406,-22.623 1.7201,-10.0091 2.1261,-31.8458 0.8086,-43.5449 -0.9976,-8.8585 -1.0102,-8.8804 -5.7187,-9.7637 z" />
    <path
       id="path10"
       style="fill:#000000"
       d="m 965.11328,1147.4375 c -0.57435,-0.2901 -1.29746,-0.052 -2.45312,0.5664 -1.48392,0.7942 -4.18812,3.6965 -6.00977,6.4492 -3.128,4.7267 -3.24284,5.5483 -2.08203,14.793 1.82804,14.5586 7.29116,17.7908 10.73633,6.3516 0.92711,-3.0784 1.86621,-6.1984 2.08593,-6.9317 0.96163,-3.2092 0.49396,-15.4636 -0.71093,-18.6328 -0.56572,-1.4879 -0.99206,-2.3056 -1.56641,-2.5957 z m 44.01762,5.6816 c -10.84167,-0.5971 -16.12884,1.5735 -15.55473,6.3868 0.56775,4.7605 4.20179,7.0245 7.73433,4.8183 1.4593,-0.9113 3.8913,-1.6582 5.4043,-1.6582 1.513,0 4.5221,-0.9143 6.6856,-2.0332 2.2461,-1.1614 3.9336,-3.1134 3.9336,-4.5488 0,-2.1417 -1.2157,-2.58 -8.2031,-2.9649 z m 1293.3203,21.5469 c -2.4287,0 -2.6477,0.5742 -1.916,5 0.4546,2.75 1.4602,20.0007 2.2343,38.334 2.2439,53.1437 2.311,54.4178 3.127,59.5859 0.4271,2.7057 0.1928,5.2805 -0.5195,5.7207 -0.7123,0.4402 -6.029,-3.7246 -11.8165,-9.2539 -11.4813,-10.9695 -14.6293,-12.0758 -20.7148,-7.289 -5.0068,3.9384 -4.379,6.998 2.625,12.8105 3.3754,2.8012 10.3883,9.1947 15.5859,14.207 13.071,12.6057 22.5728,20.5704 24.9434,20.9122 7.6856,1.1081 9.8473,-2.0342 14.1074,-20.5039 3.3008,-14.3107 10.5029,-34.9193 12.6719,-36.2598 1.5457,-0.955 1.6106,-12.1982 0.076,-13.1465 -0.63,-0.3893 -3.78,-0.2607 -7,0.2852 -5.2355,0.8875 -5.9021,1.4107 -6.3008,4.9609 -0.9329,8.3077 -4.233,18.2503 -7.8242,23.5723 -5.566,8.2486 -7.0418,8.0117 -7.1836,-1.1563 -0.066,-4.2777 -0.5256,-26.4808 -1.0215,-49.3379 l -0.9024,-41.5566 -3.7128,-3.4434 c -2.0425,-1.8929 -4.9499,-3.4414 -6.459,-3.4414 z" />
    <path
       id="path9"
       style="fill:#000000"
       d="m 1049.0234,1137.5859 c -3.9695,-0.4651 -4.0314,-0.2697 -5.8613,18.4141 -2.0175,20.6001 -1.308,23.361 5.5371,21.543 3.5612,-0.9458 4.0483,-1.7272 4.7578,-7.6309 1.107,-9.2097 1.1193,-24.607 0.023,-28.5781 -0.6385,-2.314 -2.0008,-3.4603 -4.4571,-3.7481 z" />
    <path
       id="path8"
       style="fill:#000000"
       d="m 960.02344,1121.625 c -2.187,0.062 -4.93403,1.1724 -6.10547,2.4668 -2.46938,2.7286 -1.4668,5.3993 3.92383,10.4414 3.63569,3.4005 4.1006,3.0573 5.24414,-3.8672 1.38664,-8.3967 1.12795,-9.1601 -3.0625,-9.041 z" />
    <path
       id="path7"
       style="fill:#000000"
       d="m 937.78711,1095.0664 c -3.36122,-1.2898 -8.09539,5.5268 -11.29883,16.2676 -1.53101,5.1334 -3.53958,11.681 -4.46289,14.5508 l -1.67773,5.2187 -2.05469,-3.2187 c -1.12932,-1.7698 -3.15638,-5.3873 -4.50586,-8.0391 -9.36386,-18.4004 -14.34921,-24.5693 -18.55078,-22.957 -4.23602,1.6255 -3.72801,6.9387 1.27734,13.3633 2.6507,3.4021 4.82031,6.881 4.82031,7.7304 0,2.4885 7.71,16.0101 10.64258,18.6641 3.54586,3.2089 3.39498,7.2702 -0.77734,20.7851 C 905.6524,1175.399 900,1197.3322 900,1200.8926 c 0,4.506 2.31471,8.4414 4.96484,8.4414 1.21191,0 4.49367,-2.5514 7.29297,-5.668 5.02699,-5.5969 5.07951,-5.7676 4.26563,-13.9551 -0.75709,-7.6162 -0.2221,-10.1085 6.58789,-30.6679 4.07658,-12.3074 9.28238,-29.5643 11.56836,-38.3496 2.28598,-8.7853 4.41801,-16.2345 4.73828,-16.5547 1.57929,-1.5793 0.37046,-8.3043 -1.63086,-9.0723 z m 487.17579,99.7324 c -1.5651,0.4847 -2.9183,1.6463 -4.582,3.6485 -2.384,2.869 -2.961,5.2684 -3,12.4707 l -0.047,8.9179 6.0879,0.9141 c 5.4858,0.8227 6.4758,0.5424 10,-2.834 4.311,-4.1301 4.9077,-8.2806 2.3965,-16.6621 -1.0983,-3.6658 -2.4729,-5.3265 -5,-6.0391 -2.5131,-0.7087 -4.2904,-0.9007 -5.8555,-0.416 z M 920.10938,1204 c -2.15745,0 -2.29534,4.7641 -0.6836,23.7637 0.891,10.5034 1.68051,31.8041 1.75391,47.334 0.0734,15.5298 0.52833,31.8044 1.01172,36.166 l 0.8789,7.9297 -5.17187,-4.2637 c -5.67819,-4.6805 -9.40271,-5.1983 -20.39063,-2.8418 -7.62271,1.6347 -8.8889,3.6199 -6.28515,9.8516 2.85138,6.8241 19.82783,23.9023 28.02734,28.1953 l 7.19141,3.7656 8.79492,-4.418 c 12.93291,-6.4988 22.53128,-18.404 30.2207,-37.4824 1.33005,-3.3 2.44617,-8.4384 2.48047,-11.418 l 0.0625,-5.4179 -5.86133,-0.3028 c -4.9576,-0.2566 -6.29229,0.246 -8.66601,3.2637 -1.88931,2.4019 -2.80664,5.4894 -2.80664,9.4492 0,8.1077 -9.52832,26.2978 -14.95313,28.5449 -2.08867,0.8651 -4.22938,1.1433 -4.75586,0.6172 -1.018,-1.0172 -1.46627,-19.5402 -1.7793,-73.4023 -0.163,-28.0478 -0.60519,-35.0174 -2.78906,-43.9492 C 923.63638,1208.1283 921.95129,1204 920.10938,1204 Z m -10.21485,118.7656 c 1.05837,0.2121 2.33879,1.3528 3.22461,3.2969 1.87207,4.1088 1.93815,5.5374 0.30469,6.5469 -1.56684,0.9683 -5.42383,-4.4164 -5.42383,-7.5723 0,-1.7666 0.83616,-2.4836 1.89453,-2.2715 z M 1428.2402,1348 c -5.2765,0 -8.2099,6.2263 -9.2187,19.5645 -0.8651,11.4385 -0.047,12.6873 7.2441,11.0429 4.2985,-0.9695 7.715,-4.1301 9.9746,-9.2285 0.4985,-1.1247 0.948,-5.7745 1,-10.332 0.1038,-9.1777 -1.4191,-11.0469 -9,-11.0469 z" />
    <path
       id="path6"
       style="fill:#000000"
       d="m 904.67383,1043.2383 c -1.17056,0.516 -2.00781,1.7316 -2.00781,3.4277 0,3.025 2.88155,4.7143 6,3.5176 2.55964,-0.9822 2.56868,-4.0527 0.0176,-6.1699 -1.33472,-1.1078 -2.8392,-1.2915 -4.00976,-0.7754 z m 515.62697,0.078 c -1.7055,0.2586 -3.2554,1.3993 -4.3086,3.3672 -0.7511,1.4034 -1.2458,10.9702 -1.125,21.7871 l 0.2168,19.2871 4.791,0.6016 c 4.7921,0.6023 9.1929,-0.7977 11.1836,-3.5586 0.5818,-0.8069 0.7007,-4.1668 0.2656,-7.4668 -0.4351,-3.3 -1.2554,-11.2593 -1.8242,-17.6856 -0.841,-9.5019 -1.5823,-12.1925 -3.9648,-14.4121 -1.6692,-1.5551 -3.529,-2.1785 -5.2344,-1.9199 z m 899.7441,38.0176 c -2.4507,0 -2.7515,2.6558 -0.8222,7.2734 1.4431,3.4547 1.8407,8.4022 1.4785,18.3926 -0.579,15.9742 0.037,19.666 3.2793,19.666 2.9759,0 4.9666,-2.386 5.5586,-6.666 0.4084,-2.9538 0.3837,-12.3334 -0.055,-21 -0.086,-1.7103 -1.0101,-3 -2.1504,-3 -1.2548,0 -2,-1.2675 -2,-3.4004 0,-3.8857 -3.4651,-11.2656 -5.2891,-11.2656 z" />
    <path
       id="path5"
       style="fill:#000000"
       d="m 2328.2988,1042.7598 c -1.3241,-1.0046 -2.8738,0.4256 -5.4511,3.6797 -4.0027,5.0537 -5.4735,11.2709 -3.0235,12.7851 0.6368,0.3935 1.5577,4.1791 2.0469,8.4121 0.5201,4.5003 1.9819,9.0802 3.5195,11.0293 l 2.6309,3.334 4.1133,-4.4941 c 4.6481,-5.0768 4.667,-6.7843 0.2617,-23.8223 -1.6757,-6.4809 -2.7735,-9.9192 -4.0977,-10.9238 z" />
    <path
       id="path4"
       style="fill:#000000"
       d="m 2251.666,1021.3535 c -2.7328,-0.015 -3.666,0.6309 -3.666,2.5371 0,3.8991 1.4256,6.7754 3.3574,6.7754 1.7133,0 4.3176,4.7539 9.9512,18.1582 1.5775,3.7534 4.9294,8.8212 7.4473,11.2617 5.0521,4.8967 5.5702,7.9687 2.6269,15.5547 -1.0728,2.7648 -3.1062,9.5254 -4.5195,15.0254 -1.4133,5.5 -4.5211,15.5809 -6.9063,22.4004 -3.8195,10.9206 -4.1281,12.7881 -2.5879,15.666 2.3116,4.3191 3.9103,4.1238 8.7579,-1.0664 5.1324,-5.4956 6.116,-8.1834 4.5253,-12.3672 -1.2082,-3.1777 0.3313,-10.3526 3.9961,-18.6328 0.6492,-1.4667 2.0699,-5.6653 3.1582,-9.332 1.0883,-3.6666 3.7543,-11.4673 5.9239,-17.334 5.4313,-14.6861 10.732,-31.3325 11.2519,-35.334 0.4751,-3.6575 -0.9222,-11.717 -2.2636,-13.0586 -0.466,-0.466 -1.8671,-0.1981 -3.1153,0.5938 -1.5911,1.0094 -2.2695,3.2452 -2.2695,7.4804 0,4.3238 -1.5007,9.1168 -5.2774,16.8653 -2.9019,5.9537 -5.8631,10.6282 -6.582,10.3886 -0.7189,-0.2396 -1.8317,-2.1973 -2.4726,-4.3515 -3.0787,-10.347 -12.3056,-27.5133 -16.2481,-30.2305 -0.7818,-0.5388 -3.0713,-0.989 -5.0879,-1 z" />
    <path
       style="fill:#000000"
       d="M 1359.6279,2953.6744 738.4186,3156.8372"
       id="path3" />
  </g>
</svg>
